<svg width="516" height="400" viewBox="0 0 516 400" fill="none" xmlns="http://www.w3.org/2000/svg">
<path fill-rule="evenodd" clip-rule="evenodd" d="M160.778 311.654C146.693 300.095 135.031 285.864 126.458 269.775C117.884 253.685 112.568 236.051 110.812 217.881C109.056 199.71 110.894 181.358 116.223 163.872C119.42 153.383 123.835 143.329 129.361 133.911L15.2256 274.656C-8.49074 303.902 -4.0082 346.836 25.2376 370.553C54.4834 394.269 97.4177 389.787 121.134 360.541L160.778 311.654Z" fill="#FF9D00"/>
<path d="M160.78 311.655C146.694 300.096 135.031 285.865 126.458 269.775C117.884 253.685 112.568 236.051 110.812 217.881C109.056 199.71 110.894 181.358 116.223 163.872C121.552 146.387 130.266 130.11 141.868 115.972C153.471 101.834 167.734 90.1114 183.843 81.4731C199.953 72.8348 217.593 67.4502 235.757 65.6267C253.921 63.8032 272.254 65.5766 289.707 70.8456C307.161 76.1146 323.394 84.776 337.479 96.3354L249.13 203.995L160.78 311.655Z" fill="#F73C5C"/>
<path fill-rule="evenodd" clip-rule="evenodd" d="M500.352 110.392C524.009 81.5414 519.799 38.9758 490.949 15.3187C462.098 -8.33837 419.533 -4.12846 395.876 24.7219L248.458 204.501C247.467 205.709 246.525 206.942 245.632 208.196L249.147 203.912L337.372 96.255C365.85 119.622 383.85 153.381 387.411 190.105C389.894 215.706 385.296 241.257 374.342 264.064L500.352 110.392Z" fill="#48CAED"/>
<path d="M337.372 96.255C365.85 119.622 383.85 153.381 387.411 190.104C390.973 226.828 379.964 263.449 356.523 292.017C333.082 320.585 299.288 338.701 262.576 342.379C225.864 346.057 189.24 334.995 160.762 311.628L249.147 203.912L337.372 96.255Z" fill="#2A8BEA"/>
</svg>
